HIERARCHY
ROOT Hips
{
	OFFSET 0.000000 83.214638 0.000000
	CHANNELS 6 Xposition Yposition Zposition Xrotation Yrotation Zrotation
	JOINT Pelvis
	{
		OFFSET 0.000000 0.000000 0.000000
		CHANNELS 3 Xrotation Yrotation Zrotation
		JOINT LeftUpLeg
		{
			OFFSET 8.479700 -4.795502 -0.379100
			CHANNELS 3 Xrotation Yrotation Zrotation
			JOINT LeftLeg
			{
				OFFSET 0.024144 -32.555107 0.112900
				CHANNELS 3 Xrotation Yrotation Zrotation
				JOINT LeftFoot
				{
					OFFSET -0.024144 -32.638630 -3.012600
					CHANNELS 3 Xrotation Yrotation Zrotation
					JOINT LeftToeBase
					{
						OFFSET 0.970200 -13.225400 11.864200
						CHANNELS 3 Xrotation Yrotation Zrotation
						End Site
						{
							OFFSET 0.000000 12.319262 0.000000
						}
					}
					JOINT LFootTongue
					{
						OFFSET 1.142400 -1.059800 6.665200
						CHANNELS 3 Xrotation Yrotation Zrotation
						End Site
						{
							OFFSET 0.000000 12.319262 0.000000
						}
					}
				}
				JOINT LeftPantLeg
				{
					OFFSET 0.918482 -16.533964 -2.284700
					CHANNELS 3 Xrotation Yrotation Zrotation
					End Site
					{
						OFFSET 0.350399 24.744368 0.000000
					}
				}
			}
		}
		JOINT RightUpLeg
		{
			OFFSET -8.479700 -4.795502 -0.379100
			CHANNELS 3 Xrotation Yrotation Zrotation
			JOINT RightLeg
			{
				OFFSET -0.023144 -32.555092 0.112900
				CHANNELS 3 Xrotation Yrotation Zrotation
				JOINT RightFoot
				{
					OFFSET 0.023144 -32.638641 -3.012700
					CHANNELS 3 Xrotation Yrotation Zrotation
					JOINT RightToeBase
					{
						OFFSET -0.970200 -13.225400 11.864200
						CHANNELS 3 Xrotation Yrotation Zrotation
						End Site
						{
							OFFSET 0.000000 12.319244 0.000000
						}
					}
					JOINT RFootTongue
					{
						OFFSET -1.142200 -1.059800 6.665200
						CHANNELS 3 Xrotation Yrotation Zrotation
						End Site
						{
							OFFSET 0.000000 12.319243 0.000000
						}
					}
				}
				JOINT RightPantLeg
				{
					OFFSET -0.919482 -16.533978 -2.284800
					CHANNELS 3 Xrotation Yrotation Zrotation
					End Site
					{
						OFFSET -0.350400 24.744419 0.000000
					}
				}
			}
		}
	}
	JOINT Spine
	{
		OFFSET 0.000000 7.722000 1.166200
		CHANNELS 3 Xrotation Yrotation Zrotation
		JOINT Spine1
		{
			OFFSET 0.000000 12.024101 0.248800
			CHANNELS 3 Xrotation Yrotation Zrotation
			JOINT Spine2
			{
				OFFSET 0.000000 11.502998 -0.491200
				CHANNELS 3 Xrotation Yrotation Zrotation
				JOINT Neck
				{
					OFFSET 0.000000 18.430702 -3.123100
					CHANNELS 3 Xrotation Yrotation Zrotation
					JOINT Head
					{
						OFFSET 0.000000 9.051102 1.034000
						CHANNELS 3 Xrotation Yrotation Zrotation
						JOINT HairB
						{
							OFFSET 0.208400 24.786102 24.822300
							CHANNELS 3 Xrotation Yrotation Zrotation
							End Site
							{
								OFFSET 0.000000 32.263779 0.000000
							}
						}
						JOINT HairA
						{
							OFFSET -7.081100 24.428299 23.196600
							CHANNELS 3 Xrotation Yrotation Zrotation
							End Site
							{
								OFFSET 0.000000 32.263779 0.000000
							}
						}
						JOINT Hat
						{
							OFFSET 16.728800 15.048294 -15.439601
							CHANNELS 3 Xrotation Yrotation Zrotation
							End Site
							{
								OFFSET 0.000000 32.263779 0.000000
							}
						}
					}
				}
				JOINT LeftShoulder
				{
					OFFSET 6.197800 13.665199 -4.064700
					CHANNELS 3 Xrotation Yrotation Zrotation
					JOINT LeftArm
					{
						OFFSET 7.778100 -0.187103 -1.709300
						CHANNELS 3 Xrotation Yrotation Zrotation
						JOINT LeftForeArm
						{
							OFFSET 22.049376 0.000000 0.000000
							CHANNELS 3 Xrotation Yrotation Zrotation
							JOINT LeftHand
							{
								OFFSET 23.009392 0.000000 0.000000
								CHANNELS 3 Xrotation Yrotation Zrotation
								JOINT LeftHandThumb1
								{
									OFFSET 3.507191 -2.063065 3.133727
									CHANNELS 3 Xrotation Yrotation Zrotation
									JOINT LeftHandThumb2
									{
										OFFSET 3.101337 -1.790558 1.790558
										CHANNELS 3 Xrotation Yrotation Zrotation
										JOINT LeftHandThumb3
										{
											OFFSET 3.058640 -1.765907 1.765906
											CHANNELS 3 Xrotation Yrotation Zrotation
											End Site
											{
												OFFSET -0.415260 3.926476 -0.049563
											}
										}
									}
								}
								JOINT LeftHandIndex1
								{
									OFFSET 11.334419 -0.901459 3.706815
									CHANNELS 3 Xrotation Yrotation Zrotation
									JOINT LeftHandIndex2
									{
										OFFSET 3.283112 0.000000 0.000000
										CHANNELS 3 Xrotation Yrotation Zrotation
										JOINT LeftHandIndex3
										{
											OFFSET 3.323853 0.000000 0.000000
											CHANNELS 3 Xrotation Yrotation Zrotation
											End Site
											{
												OFFSET -1.135597 3.097809 0.402452
											}
										}
									}
								}
								JOINT LeftHandMiddle1
								{
									OFFSET 11.335861 0.000000 0.000000
									CHANNELS 3 Xrotation Yrotation Zrotation
									JOINT LeftHandMiddle2
									{
										OFFSET 3.410492 0.000000 0.000000
										CHANNELS 3 Xrotation Yrotation Zrotation
										JOINT LeftHandMiddle3
										{
											OFFSET 3.312172 0.000000 0.000000
											CHANNELS 3 Xrotation Yrotation Zrotation
											End Site
											{
												OFFSET -1.150200 3.080154 0.400270
											}
										}
									}
								}
								JOINT LeftHandRing1
								{
									OFFSET 11.514786 -0.013176 -3.003090
									CHANNELS 3 Xrotation Yrotation Zrotation
									JOINT LeftHandRing2
									{
										OFFSET 3.053307 0.000000 0.000000
										CHANNELS 3 Xrotation Yrotation Zrotation
										JOINT LeftHandRing3
										{
											OFFSET 3.295807 0.000000 0.000000
											CHANNELS 3 Xrotation Yrotation Zrotation
											End Site
											{
												OFFSET -1.281006 3.013344 0.375733
											}
										}
									}
								}
								JOINT LeftHandPinky1
								{
									OFFSET 10.518692 -0.960396 -5.730441
									CHANNELS 3 Xrotation Yrotation Zrotation
									JOINT LeftHandPinky2
									{
										OFFSET 2.861649 0.000000 0.000000
										CHANNELS 3 Xrotation Yrotation Zrotation
										JOINT LeftHandPinky3
										{
											OFFSET 2.863380 0.000000 0.000000
											CHANNELS 3 Xrotation Yrotation Zrotation
											End Site
											{
												OFFSET -0.843597 2.711159 0.369971
											}
										}
									}
								}
							}
							JOINT LSleeve
							{
								OFFSET 6.676277 -0.344902 -1.011730
								CHANNELS 3 Xrotation Yrotation Zrotation
								End Site
								{
									OFFSET 0.000000 14.885353 0.000000
								}
							}
						}
					}
				}
				JOINT RightShoulder
				{
					OFFSET -6.197800 13.665199 -4.064700
					CHANNELS 3 Xrotation Yrotation Zrotation
					JOINT RightArm
					{
						OFFSET -7.778100 -0.187103 -1.709300
						CHANNELS 3 Xrotation Yrotation Zrotation
						JOINT RightForeArm
						{
							OFFSET -22.049376 0.000000 0.000000
							CHANNELS 3 Xrotation Yrotation Zrotation
							JOINT RightHand
							{
								OFFSET -23.009392 0.000000 0.000000
								CHANNELS 3 Xrotation Yrotation Zrotation
								JOINT RightHandThumb1
								{
									OFFSET -3.507191 -2.063065 3.133727
									CHANNELS 3 Xrotation Yrotation Zrotation
									JOINT RightHandThumb2
									{
										OFFSET -3.101337 -1.790558 1.790558
										CHANNELS 3 Xrotation Yrotation Zrotation
										JOINT RightHandThumb3
										{
											OFFSET -3.058640 -1.765907 1.765906
											CHANNELS 3 Xrotation Yrotation Zrotation
											End Site
											{
												OFFSET 0.415260 3.926476 -0.049563
											}
										}
									}
								}
								JOINT RightHandIndex1
								{
									OFFSET -11.334419 -0.901459 3.706815
									CHANNELS 3 Xrotation Yrotation Zrotation
									JOINT RightHandIndex2
									{
										OFFSET -3.283112 0.000000 0.000000
										CHANNELS 3 Xrotation Yrotation Zrotation
										JOINT RightHandIndex3
										{
											OFFSET -3.323853 0.000000 0.000000
											CHANNELS 3 Xrotation Yrotation Zrotation
											End Site
											{
												OFFSET 1.135597 3.097809 0.402452
											}
										}
									}
								}
								JOINT RightHandMiddle1
								{
									OFFSET -11.335861 0.000000 0.000000
									CHANNELS 3 Xrotation Yrotation Zrotation
									JOINT RightHandMiddle2
									{
										OFFSET -3.410492 0.000000 0.000000
										CHANNELS 3 Xrotation Yrotation Zrotation
										JOINT RightHandMiddle3
										{
											OFFSET -3.312172 0.000000 0.000000
											CHANNELS 3 Xrotation Yrotation Zrotation
											End Site
											{
												OFFSET 1.150200 3.080154 0.400270
											}
										}
									}
								}
								JOINT RightHandRing1
								{
									OFFSET -11.514786 -0.013176 -3.003090
									CHANNELS 3 Xrotation Yrotation Zrotation
									JOINT RightHandRing2
									{
										OFFSET -3.053307 0.000000 0.000000
										CHANNELS 3 Xrotation Yrotation Zrotation
										JOINT RightHandRing3
										{
											OFFSET -3.295807 0.000000 0.000000
											CHANNELS 3 Xrotation Yrotation Zrotation
											End Site
											{
												OFFSET 1.281006 3.013344 0.375733
											}
										}
									}
								}
								JOINT RightHandPinky1
								{
									OFFSET -10.518692 -0.960396 -5.730441
									CHANNELS 3 Xrotation Yrotation Zrotation
									JOINT RightHandPinky2
									{
										OFFSET -2.861649 0.000000 0.000000
										CHANNELS 3 Xrotation Yrotation Zrotation
										JOINT RightHandPinky3
										{
											OFFSET -2.863380 0.000000 0.000000
											CHANNELS 3 Xrotation Yrotation Zrotation
											End Site
											{
												OFFSET 0.843597 2.711159 0.369971
											}
										}
									}
								}
							}
							JOINT RSleeve
							{
								OFFSET -6.676277 -0.344902 -1.011730
								CHANNELS 3 Xrotation Yrotation Zrotation
								End Site
								{
									OFFSET 0.000000 14.885353 0.000000
								}
							}
						}
					}
				}
				JOINT Backpack
				{
					OFFSET 0.000000 -2.471497 36.677502
					CHANNELS 3 Xrotation Yrotation Zrotation
					End Site
					{
						OFFSET 0.000000 20.427315 0.000000
					}
				}
				JOINT Hood
				{
					OFFSET 0.000000 18.754097 -10.431000
					CHANNELS 3 Xrotation Yrotation Zrotation
					JOINT Hood1
					{
						OFFSET 0.000000 -5.011002 -7.685901
						CHANNELS 3 Xrotation Yrotation Zrotation
						End Site
						{
							OFFSET 0.000000 9.175140 0.000000
						}
					}
				}
				JOINT LHoodieString
				{
					OFFSET 5.250500 16.397697 3.089900
					CHANNELS 3 Xrotation Yrotation Zrotation
					JOINT LHoodieString1
					{
						OFFSET 0.257700 -6.364304 3.694600
						CHANNELS 3 Xrotation Yrotation Zrotation
						JOINT LHoodieString2
						{
							OFFSET 0.000000 -9.643799 2.679100
							CHANNELS 3 Xrotation Yrotation Zrotation
							End Site
							{
								OFFSET 0.000000 10.009018 0.000000
							}
						}
					}
				}
				JOINT RHoodieString
				{
					OFFSET -5.250500 16.397697 3.089900
					CHANNELS 3 Xrotation Yrotation Zrotation
					JOINT RHoodieString1
					{
						OFFSET -0.257700 -6.364304 3.694600
						CHANNELS 3 Xrotation Yrotation Zrotation
						JOINT RHoodieString2
						{
							OFFSET 0.000000 -9.643799 2.679100
							CHANNELS 3 Xrotation Yrotation Zrotation
							End Site
							{
								OFFSET 0.000000 10.009018 0.000000
							}
						}
					}
				}
			}
			JOINT LBackpack_Strap
			{
				OFFSET 15.223200 -7.719803 -6.610900
				CHANNELS 3 Xrotation Yrotation Zrotation
				End Site
				{
					OFFSET 0.000000 16.040596 0.000000
				}
			}
			JOINT RBackpack_Strap
			{
				OFFSET -15.223000 -7.719803 -6.610900
				CHANNELS 3 Xrotation Yrotation Zrotation
				End Site
				{
					OFFSET 0.000000 16.040596 0.000000
				}
			}
		}
	}
	JOINT BoyFacialAnim_Joint
	{
		OFFSET 1.000000 -82.208099 -1.550900
		CHANNELS 3 Xrotation Yrotation Zrotation
		End Site
		{
			OFFSET 0.000000 30.012791 0.000000
		}
	}
}
MOTION
Frames: 4
Frame Time: 0.033333
-14.569870 148.081406 50.846901 -25.184912 27.434126 -2.523966 -0.000000 -0.000001 -0.000000 -47.439366 10.253270 8.472232 16.119752 4.784104 3.025679 13.863175 -1.644508 -4.024291 -0.000001 -0.000001 0.000000 -0.000001 -0.000001 0.000000 -0.000001 -0.000001 0.000002 -23.212528 -16.556701 -9.101947 16.866655 -2.279482 -11.004398 8.579599 -1.869149 8.194453 -0.000002 -0.000000 0.000000 -0.000002 -0.000000 0.000000 0.000002 -0.000000 0.000000 10.298939 -2.495496 1.048150 20.652629 -5.120824 2.210455 20.652621 -5.120829 2.210451 -31.626795 5.455407 1.432693 10.629656 6.815248 -1.214933 -0.000001 -0.000002 -0.000000 -0.000001 -0.000002 -0.000000 -0.000001 -0.000002 -0.000000 1.920610 2.367481 13.897656 -39.834053 -33.652677 15.340854 -5.440625 -56.993387 -2.225909 -14.905846 -4.949775 -24.057118 -16.173109 -10.523298 18.026515 -14.682783 9.332858 -3.158572 0.000000 -0.000001 0.000003 -0.346637 -6.853615 -70.661879 -0.955893 0.645165 -73.314301 0.000000 -0.000000 -0.000000 -2.496814 3.016888 -69.995389 -4.508379 -4.506689 -82.413848 -0.000000 -0.000001 -0.000002 -2.145838 11.613133 -72.110002 -3.741676 -5.316714 -85.342517 -0.000000 -0.000001 -0.000001 -2.718519 14.187245 -74.312431 -5.138916 -8.250934 -90.111826 0.000003 0.000000 0.000001 0.000001 -0.000000 0.000001 2.236110 -3.266101 -21.516259 -48.357538 28.460642 9.591736 -109.335332 112.709897 97.652867 -3.915489 -18.825666 -10.503990 -5.128603 11.082561 0.643620 1.557473 -14.613002 -0.390022 0.000001 0.000004 0.000004 -6.720270 2.897901 46.312716 -4.663176 0.563382 38.420654 -0.000001 -0.000000 0.000002 -8.149170 0.314957 47.532676 -2.688572 0.674259 42.341302 0.000002 0.000003 0.000000 -6.723879 -8.060595 41.704111 1.943254 4.642722 39.016817 -0.000002 0.000001 0.000000 -8.266289 -12.531392 43.109354 3.880374 8.252593 37.883736 -0.000000 -0.000000 0.000000 -0.000000 -0.000003 0.000001 0.000002 0.000000 -0.000000 0.000002 0.000000 -0.000000 0.000002 0.000000 -0.000000 0.000002 0.000000 -0.000000 0.000002 0.000000 -0.000000 0.000000 -0.000000 -0.000000 0.000002 0.000000 -0.000000 0.000002 0.000000 -0.000000 0.000000 -0.000000 -0.000000 0.000001 -0.000001 0.000000 0.000001 -0.000001 0.000000 -0.000000 -0.000001 -0.000000 
-13.284603 145.371399 48.344879 -20.064632 22.083830 -5.568152 -0.000001 0.000001 -0.000001 -43.916142 10.717320 7.367710 15.691323 5.054017 2.663214 14.935474 -1.677975 -4.124193 0.000000 0.000003 0.000001 0.000000 0.000003 -0.000001 -0.000001 0.000001 0.000000 -21.866984 -16.871216 -8.930532 17.522785 -2.014857 -11.733912 11.659836 -1.354694 8.122798 -0.000000 0.000000 -0.000001 -0.000000 0.000000 -0.000001 0.000001 0.000000 0.000001 9.267152 -2.012230 1.087034 18.573257 -4.145956 2.163721 18.573255 -4.145961 2.163722 -30.794926 5.788287 0.415903 9.375025 6.270271 0.217068 0.000001 0.000001 -0.000000 0.000001 0.000001 -0.000000 0.000001 0.000001 -0.000000 1.687394 3.745838 16.037101 -41.121311 -35.490698 12.958936 -7.446778 -50.270281 -3.197485 -14.523127 -5.173097 -21.432633 -16.189082 -8.472897 17.583209 -13.821537 10.529508 -2.603945 0.000002 -0.000000 0.000004 -0.363029 -6.968392 -70.791373 -1.197107 0.555222 -68.441446 0.000001 0.000001 -0.000003 -2.828379 2.702993 -72.205611 -3.860410 -4.369079 -73.906827 -0.000001 0.000000 0.000000 -2.640490 11.374306 -74.250864 -2.962583 -5.232216 -76.638336 -0.000000 -0.000000 -0.000004 -3.417618 13.867742 -76.401649 -4.003694 -8.181816 -80.841026 -0.000000 0.000001 0.000003 -0.000000 0.000000 0.000002 -1.345769 -6.937578 -17.424839 -52.108992 35.866403 12.807572 -124.944487 110.379948 121.605385 0.986947 -19.518678 -21.798648 -5.566170 15.799875 -0.169770 -0.217274 -12.841581 0.034490 0.000001 0.000002 0.000002 -7.821950 3.853283 49.325239 -5.527658 0.891183 42.732464 -0.000004 0.000002 0.000002 -9.457672 0.670705 49.836386 -3.099814 0.468797 44.964556 0.000000 0.000001 0.000003 -8.302386 -8.439097 42.606836 2.465668 4.839689 39.711912 -0.000003 -0.000001 -0.000003 -10.224664 -13.402723 43.502414 4.885696 8.309425 37.220204 -0.000000 -0.000001 0.000000 0.000002 0.000001 -0.000003 0.000000 -0.000001 0.000000 0.000000 -0.000001 0.000000 0.000000 -0.000001 0.000000 0.000000 -0.000001 0.000000 0.000000 -0.000001 0.000001 0.000000 -0.000001 -0.000000 0.000000 -0.000001 0.000000 0.000000 -0.000001 0.000001 0.000000 -0.000001 -0.000000 0.000000 0.000000 0.000000 0.000000 0.000000 0.000000 -0.000001 0.000001 -0.000001 
-11.796865 142.184845 46.644760 -15.526094 15.859228 -8.115862 -0.000000 0.000001 0.000000 -40.409435 11.123025 6.246452 15.531381 5.320556 2.355242 16.236347 -1.713831 -4.137156 -0.000000 0.000000 -0.000002 -0.000000 0.000000 -0.000002 -0.000000 0.000001 -0.000002 -20.659765 -16.992478 -8.800710 18.292645 -2.142961 -12.281059 16.705961 -0.576072 8.117311 -0.000000 0.000000 -0.000001 -0.000000 0.000000 -0.000001 0.000002 0.000001 -0.000001 8.182713 -1.335546 1.162572 16.390024 -2.745599 2.232986 16.390024 -2.745601 2.232989 -29.647252 6.041036 -0.846374 7.840308 5.722275 1.356138 -0.000000 -0.000001 0.000000 -0.000000 -0.000001 0.000000 -0.000000 -0.000001 0.000000 2.248519 3.130053 17.265494 -41.447845 -35.045274 13.408667 -11.424149 -45.290148 -5.103714 -13.703227 -4.257266 -16.626981 -16.415263 -6.055642 16.808255 -12.958298 11.663741 -1.673664 0.000002 -0.000001 0.000001 -0.406501 -7.147512 -69.807491 -1.749442 0.321602 -57.763477 -0.000000 0.000001 -0.000002 -3.187440 2.272669 -73.632076 -2.681310 -3.807746 -56.954256 0.000002 -0.000001 0.000000 -3.245653 11.048890 -75.441611 -1.499972 -4.773717 -59.607341 0.000001 -0.000000 -0.000002 -4.283771 13.408776 -77.344140 -1.856006 -7.570469 -62.824428 -0.000000 0.000003 0.000002 0.000000 0.000001 0.000003 -4.368488 -11.130303 -15.956959 -55.416183 39.957310 17.347470 -174.462648 104.899814 174.638020 14.682692 -18.546308 -32.270824 -6.061228 16.377322 -4.466934 -0.639710 -13.245973 0.419521 0.000001 -0.000003 0.000001 -8.697937 4.617107 51.310232 -6.224319 1.176235 45.311482 -0.000001 0.000002 0.000000 -10.597629 1.030859 53.839588 -3.436793 0.312492 47.242086 -0.000002 0.000002 0.000002 -9.988294 -8.312702 48.718452 2.767755 5.118422 41.792059 0.000002 -0.000002 0.000002 -12.490737 -13.420780 49.166359 5.502969 8.573190 38.336701 0.000002 -0.000003 -0.000000 -0.000001 0.000001 -0.000002 -0.000002 0.000001 0.000001 -0.000002 0.000001 0.000001 -0.000002 0.000001 0.000001 -0.000002 0.000001 0.000001 -0.000002 0.000001 0.000001 -0.000002 0.000000 -0.000000 -0.000002 0.000001 0.000001 -0.000002 0.000001 0.000001 -0.000002 0.000000 -0.000000 0.000001 -0.000000 0.000000 0.000001 -0.000000 0.000000 -0.000000 0.000001 0.000000 
-10.176936 138.463226 45.724861 -11.716851 10.295325 -9.710555 -0.000001 0.000000 0.000000 -37.007683 11.465412 5.126265 15.660176 5.590655 2.130366 17.567974 -1.738784 -4.115627 0.000001 -0.000001 0.000003 0.000001 -0.000001 0.000002 0.000000 -0.000001 -0.000002 -19.593139 -16.923272 -8.751774 19.114575 -2.671107 -12.588780 22.815274 0.319951 8.051819 0.000000 0.000002 -0.000001 0.000000 0.000002 -0.000001 -0.000000 0.000000 0.000000 7.152283 -0.749110 1.251876 14.320174 -1.490207 2.470888 14.320170 -1.490211 2.470889 -28.326379 6.168144 -1.849843 6.175022 5.147165 2.397997 -0.000000 0.000000 -0.000000 -0.000000 0.000000 -0.000000 -0.000000 0.000000 -0.000000 2.836075 2.659065 18.702836 -41.611630 -34.131866 14.306496 -15.957296 -40.612021 -6.914837 -12.862459 -3.341904 -11.139082 -17.109945 -4.821200 15.823532 -12.837927 11.500031 -0.481544 0.000004 -0.000002 0.000004 -0.489688 -7.348513 -66.353792 -2.359873 0.027100 -47.190197 -0.000001 0.000000 -0.000002 -3.278702 1.894451 -71.347002 -1.981354 -3.172907 -44.386404 0.000000 -0.000001 0.000002 -3.592685 10.767241 -72.605560 -0.532604 -4.284318 -47.850820 -0.000000 -0.000001 -0.000000 -4.805969 12.966161 -73.838614 -0.451849 -6.839625 -50.721647 0.000000 0.000001 -0.000000 -0.000000 -0.000001 -0.000002 -5.602057 -13.105636 -16.210196 -56.624638 40.209836 20.521664 -190.047090 106.255764 186.979366 21.766824 -15.857244 -33.734868 -10.367905 11.904618 -15.643503 0.873676 -16.553390 0.793983 0.000000 -0.000000 0.000001 -9.074571 4.969962 56.461011 -6.608553 1.329387 47.286359 0.000003 -0.000000 0.000004 -11.651709 1.461397 63.502482 -3.786969 0.350255 51.808474 0.000005 0.000000 -0.000000 -11.738323 -7.760871 60.291118 2.329265 5.844104 50.739809 -0.000003 0.000003 0.000004 -15.001597 -12.698585 60.103575 4.947053 9.680855 46.707736 -0.000002 -0.000002 -0.000005 -0.000000 -0.000004 -0.000000 -0.000001 0.000000 -0.000001 -0.000001 0.000000 -0.000001 -0.000001 0.000000 -0.000001 -0.000001 0.000000 -0.000001 -0.000001 0.000000 -0.000001 0.000001 -0.000000 -0.000001 -0.000001 0.000000 -0.000001 -0.000001 0.000000 -0.000001 0.000001 -0.000000 -0.000001 0.000001 -0.000000 -0.000000 0.000001 -0.000000 -0.000000 -0.000001 0.000000 0.000000 
